<svg width="199" height="30" viewBox="0 0 199 30" fill="none" xmlns="http://www.w3.org/2000/svg">
<path d="M30 16.7714V30H13.1238V18.7476H16.8714V26.2476H26.2476V11.2191L15 4.39047L3.74762 11.2238V16.8809H0V16.7714V9.10477L15 0L30 9.10477V16.7714ZM6.5619 30H10.3095V20.7619H6.5619V30ZM0 30H3.74762V24.0952H0V30ZM16.8714 13.1238H13.1238V16.8762H16.8714V13.1238Z" fill="url(#paint0_linear_828_25)"/>
<path d="M41.5436 8.74311V5.36353H45.7868V8.74311H41.5436ZM41.6062 28.2132V12.0663H45.7555V28.2132H41.6062Z" fill="white"/>
<path d="M69.7254 28.2132V18.1621C69.7254 15.8966 68.286 15.1267 66.978 15.1267C65.67 15.1267 64.2055 15.8965 64.2055 18.0682V28.2132H60.0561V18.1621C60.0561 15.8966 58.6167 15.1267 57.3087 15.1267C56.0006 15.1267 54.5299 15.8966 54.5299 18.1621V28.2132H50.3806V11.5845H54.436V13.1178C54.9791 12.5704 55.6256 12.1363 56.338 11.8408C57.0503 11.5454 57.8142 11.3944 58.5854 11.3967C59.4321 11.3608 60.2747 11.5338 61.0387 11.9005C61.8027 12.2673 62.4647 12.8164 62.9663 13.4996C63.5899 12.8046 64.3591 12.2558 65.2191 11.8924C66.0792 11.5289 67.0088 11.3596 67.9418 11.3967C69.4422 11.3376 70.9071 11.8625 72.0285 12.8612C72.6446 13.4784 73.1248 14.2176 73.4384 15.0313C73.752 15.845 73.8921 16.7153 73.8498 17.5864V28.2257L69.7254 28.2132Z" fill="white"/>
<path d="M97.6819 28.2132V18.1621C97.6819 15.8965 96.2487 15.1267 94.9407 15.1267C93.6327 15.1267 92.1619 15.8965 92.1619 18.0682V28.2132H88.0126V18.1621C88.0126 15.8965 86.5794 15.1267 85.2714 15.1267C83.9634 15.1267 82.4926 15.8965 82.4926 18.1621V28.2132H78.3433V11.5844H82.3987V13.1178C82.9419 12.5703 83.5884 12.1362 84.3007 11.8408C85.013 11.5453 85.7769 11.3944 86.5481 11.3967C87.395 11.3596 88.2379 11.5322 89.0021 11.899C89.7664 12.2658 90.4282 12.8156 90.929 13.4995C91.5565 12.8011 92.331 12.2503 93.1966 11.8867C94.0623 11.5232 94.9977 11.3558 95.9358 11.3967C97.4362 11.3376 98.9012 11.8625 100.023 12.8611C100.637 13.4789 101.117 14.2184 101.429 15.032C101.742 15.8457 101.881 16.7157 101.838 17.5863V28.2257L97.6819 28.2132Z" fill="white"/>
<path d="M117.79 26.3606C116.397 27.6757 114.553 28.4082 112.636 28.4082C110.72 28.4082 108.876 27.6757 107.483 26.3606C105.987 24.7647 105.605 22.8872 105.605 19.8832C105.605 16.8791 105.993 15.0329 107.483 13.437C108.876 12.1219 110.72 11.3894 112.636 11.3894C114.553 11.3894 116.397 12.1219 117.79 13.437C119.292 15.0329 119.668 16.8854 119.668 19.8832C119.668 22.881 119.324 24.8023 117.79 26.3606ZM114.567 15.8652C114.037 15.3894 113.349 15.1261 112.636 15.1261C111.924 15.1261 111.236 15.3894 110.706 15.8652C109.848 16.6914 109.748 18.1934 109.748 19.8832C109.748 21.5729 109.848 23.1062 110.706 23.9386C111.238 24.4107 111.925 24.6713 112.636 24.6713C113.348 24.6713 114.035 24.4107 114.567 23.9386C115.431 23.1062 115.525 21.6105 115.525 19.8832C115.525 18.1558 115.431 16.7101 114.567 15.8652V15.8652Z" fill="white"/>
<path d="M129.112 28.4072C126.496 28.4072 124.161 28.1193 122.027 26.0102L124.737 23.3003C126.076 24.6709 127.866 24.8649 129.174 24.8649C130.614 24.8649 132.11 24.383 132.11 23.1376C132.11 22.3115 131.697 21.7357 130.357 21.6105L127.672 21.3539C124.731 21.091 122.853 19.758 122.853 16.7101C122.853 13.2304 125.889 11.4155 129.268 11.4155C131.891 11.4155 134.025 11.8911 135.621 13.3619L133.067 15.9466C132.11 15.083 130.676 14.8263 129.206 14.8263C127.547 14.8263 126.846 15.5961 126.846 16.4222C126.846 17.2483 127.322 17.7303 128.567 17.8617L131.183 18.1183C134.475 18.4375 136.134 20.1585 136.134 22.9999C136.146 26.6486 133.017 28.4072 129.112 28.4072Z" fill="white"/>
<path d="M146.229 28.4072C142.912 28.4072 138.794 26.6173 138.794 19.8832C138.794 13.1491 142.912 11.3967 146.229 11.3967C147.252 11.3499 148.273 11.5253 149.221 11.911C150.17 12.2968 151.024 12.8836 151.724 13.631L148.914 16.4347C148.596 16.0256 148.189 15.6949 147.724 15.4681C147.258 15.2413 146.747 15.1245 146.229 15.1267C145.778 15.1095 145.329 15.1992 144.919 15.3885C144.509 15.5777 144.149 15.8612 143.869 16.2157C143.243 17.0105 142.943 18.1308 142.943 19.8832C142.943 21.6355 143.231 22.7871 143.869 23.5882C144.15 23.9408 144.51 24.2225 144.92 24.4106C145.33 24.5986 145.778 24.6878 146.229 24.6709C146.747 24.6745 147.259 24.5584 147.724 24.3315C148.19 24.1046 148.597 23.7731 148.914 23.3629L151.724 26.1416C151.025 26.8934 150.173 27.4851 149.224 27.8762C148.276 28.2673 147.254 28.4484 146.229 28.4072V28.4072Z" fill="white"/>
<path d="M165.955 26.3606C165.282 27.0403 164.475 27.573 163.585 27.9252C162.695 28.2774 161.742 28.4415 160.786 28.4072C159.834 28.4421 158.886 28.2782 158.001 27.9258C157.116 27.5734 156.315 27.0403 155.648 26.3606C154.146 24.7647 153.77 22.8872 153.77 19.8832C153.77 16.8791 154.152 15.0329 155.648 13.437C157.041 12.1219 158.885 11.3894 160.802 11.3894C162.718 11.3894 164.562 12.1219 165.955 13.437C167.457 15.0329 167.833 16.8854 167.833 19.8832C167.833 22.881 167.489 24.8023 165.955 26.3606ZM162.732 15.8652C162.202 15.3894 161.514 15.1261 160.802 15.1261C160.089 15.1261 159.401 15.3894 158.871 15.8652C158.007 16.6914 157.913 18.1934 157.913 19.8832C157.913 21.5729 158.007 23.1062 158.871 23.9386C159.403 24.4107 160.09 24.6713 160.802 24.6713C161.513 24.6713 162.2 24.4107 162.732 23.9386C163.596 23.1062 163.69 21.6105 163.69 19.8832C163.69 18.1558 163.596 16.7101 162.732 15.8652Z" fill="white"/>
<path d="M180.832 16.1219C180.564 15.7994 180.227 15.5421 179.845 15.3697C179.464 15.1972 179.047 15.1141 178.629 15.1268C177.377 15.1268 175.95 16.0843 175.95 18.1934V28.2069H171.801V11.5845H175.85V13.1804C176.385 12.609 177.033 12.1552 177.752 11.8481C178.472 11.541 179.248 11.3873 180.031 11.3967C180.76 11.3549 181.49 11.4732 182.169 11.7435C182.848 12.0138 183.46 12.4295 183.961 12.9614L180.832 16.1219Z" fill="white"/>
<path d="M188.617 21.1912C188.617 23.3628 189.869 24.8962 192.26 24.8962C192.963 24.9338 193.666 24.8127 194.316 24.5418C194.966 24.271 195.546 23.8573 196.015 23.3316L198.518 25.7911C196.828 27.5122 195.201 28.4072 192.197 28.4072C188.273 28.4072 184.505 26.6173 184.505 19.8832C184.505 14.4571 187.447 11.3967 191.753 11.3967C196.384 11.3967 199 14.7137 199 19.4388V21.1912H188.617ZM194.557 16.5662C194.293 16.0568 193.894 15.6297 193.404 15.3316C192.914 15.0336 192.351 14.8759 191.778 14.8759C191.204 14.8759 190.642 15.0336 190.152 15.3316C189.662 15.6297 189.263 16.0568 188.999 16.5662C188.741 17.125 188.61 17.7343 188.617 18.3498H194.938C194.948 17.734 194.818 17.124 194.557 16.5662V16.5662Z" fill="white"/>
<defs>
<linearGradient id="paint0_linear_828_25" x1="15" y1="0" x2="15" y2="30" gradientUnits="userSpaceOnUse">
<stop stop-color="white"/>
<stop offset="1" stop-color="white"/>
</linearGradient>
</defs>
</svg>
