<svg width="42" height="40" viewBox="0 0 42 40" fill="none" xmlns="http://www.w3.org/2000/svg">
<path fill-rule="evenodd" clip-rule="evenodd" d="M21.9902 1.35326L20.9527 0.712601L19.908 1.34151L5.20374 10.1933L4.23524 10.7763V11.9067V17.3395C4.23524 18.4441 5.13067 19.3395 6.23524 19.3395C7.3398 19.3395 8.23524 18.4441 8.23524 17.3395V13.0372L20.9262 5.39738L33.5169 13.1718C33.4808 14.1943 33.8587 15.2283 34.6506 16.0088C36.1654 17.5017 38.6213 17.5017 40.1361 16.0088C41.6509 14.5159 41.6509 12.0954 40.1361 10.6025C38.9479 9.43152 37.1806 9.17905 35.7428 9.84513L21.9902 1.35326ZM20.9393 9.98744L29.4287 14.8888V24.6915L20.9393 29.5929L12.4499 24.6915V14.8888L20.9393 9.98744ZM19.8886 38.6468L20.9261 39.2874L21.9708 38.6585L36.6751 29.8067L37.6436 29.2237V28.0933V22.241C37.6436 21.1364 36.7481 20.241 35.6436 20.241C34.539 20.241 33.6436 21.1364 33.6436 22.241V26.9628L20.9526 34.6026L8.36187 26.8282C8.39799 25.8057 8.02009 24.7717 7.22816 23.9912C5.7134 22.4983 3.25748 22.4983 1.74272 23.9912C0.227951 25.4841 0.227951 27.9046 1.74272 29.3975C2.9309 30.5685 4.69816 30.821 6.13604 30.1549L19.8886 38.6468Z" fill="url(#paint0_linear_2262_25306)"/>
<path fill-rule="evenodd" clip-rule="evenodd" d="M21.9902 1.35326L20.9527 0.712601L19.908 1.34151L5.20374 10.1933L4.23524 10.7763V11.9067V17.3395C4.23524 18.4441 5.13067 19.3395 6.23524 19.3395C7.3398 19.3395 8.23524 18.4441 8.23524 17.3395V13.0372L20.9262 5.39738L33.5169 13.1718C33.4808 14.1943 33.8587 15.2283 34.6506 16.0088C36.1654 17.5017 38.6213 17.5017 40.1361 16.0088C41.6509 14.5159 41.6509 12.0954 40.1361 10.6025C38.9479 9.43152 37.1806 9.17905 35.7428 9.84513L21.9902 1.35326ZM20.9393 9.98744L29.4287 14.8888V24.6915L20.9393 29.5929L12.4499 24.6915V14.8888L20.9393 9.98744ZM19.8886 38.6468L20.9261 39.2874L21.9708 38.6585L36.6751 29.8067L37.6436 29.2237V28.0933V22.241C37.6436 21.1364 36.7481 20.241 35.6436 20.241C34.539 20.241 33.6436 21.1364 33.6436 22.241V26.9628L20.9526 34.6026L8.36187 26.8282C8.39799 25.8057 8.02009 24.7717 7.22816 23.9912C5.7134 22.4983 3.25748 22.4983 1.74272 23.9912C0.227951 25.4841 0.227951 27.9046 1.74272 29.3975C2.9309 30.5685 4.69816 30.821 6.13604 30.1549L19.8886 38.6468Z" fill="white" fill-opacity="0.1"/>
<defs>
<linearGradient id="paint0_linear_2262_25306" x1="48.9252" y1="45.8314" x2="2.41725" y2="3.60315" gradientUnits="userSpaceOnUse">
<stop stop-color="#645AFF"/>
<stop offset="0.60257" stop-color="#E40C5B"/>
<stop offset="1" stop-color="#FF4C3B"/>
</linearGradient>
</defs>
</svg>
