<svg width="36" height="36" viewBox="0 0 36 36" fill="none" xmlns="http://www.w3.org/2000/svg">
<path fill-rule="evenodd" clip-rule="evenodd" d="M2.24998 33.2763C2.24998 34.5189 3.25734 35.5263 4.49998 35.5263H31.5C32.7426 35.5263 33.75 34.5189 33.75 33.2763C33.75 32.0336 32.7426 31.0263 31.5 31.0263H4.49999C3.25734 31.0263 2.24998 32.0336 2.24998 33.2763ZM0 26.5263C0 27.7689 1.00736 28.7763 2.25 28.7763H33.75C34.9926 28.7763 36 27.7689 36 26.5263C36 25.2836 34.9926 24.2763 33.75 24.2763H31.5V12.7763C31.5 11.6717 30.6046 10.7763 29.5 10.7763H29C27.8954 10.7763 27 11.6717 27 12.7763V24.2763H20.25V7.96378H24.6517C25.0876 7.96378 25.3148 7.44474 25.0189 7.1245L18.7346 0.321453C18.3386 -0.107147 17.6614 -0.107147 17.2655 0.321453L10.9811 7.1245C10.6852 7.44474 10.9124 7.96378 11.3483 7.96378H15.75V24.2763H9V17.2763C9 16.1717 8.10457 15.2763 7 15.2763H6.5C5.39543 15.2763 4.5 16.1717 4.5 17.2763V24.2763H2.25C1.00736 24.2763 0 25.2836 0 26.5263Z" fill="url(#paint0_linear_2262_25482)"/>
<path fill-rule="evenodd" clip-rule="evenodd" d="M2.24998 33.2763C2.24998 34.5189 3.25734 35.5263 4.49998 35.5263H31.5C32.7426 35.5263 33.75 34.5189 33.75 33.2763C33.75 32.0336 32.7426 31.0263 31.5 31.0263H4.49999C3.25734 31.0263 2.24998 32.0336 2.24998 33.2763ZM0 26.5263C0 27.7689 1.00736 28.7763 2.25 28.7763H33.75C34.9926 28.7763 36 27.7689 36 26.5263C36 25.2836 34.9926 24.2763 33.75 24.2763H31.5V12.7763C31.5 11.6717 30.6046 10.7763 29.5 10.7763H29C27.8954 10.7763 27 11.6717 27 12.7763V24.2763H20.25V7.96378H24.6517C25.0876 7.96378 25.3148 7.44474 25.0189 7.1245L18.7346 0.321453C18.3386 -0.107147 17.6614 -0.107147 17.2655 0.321453L10.9811 7.1245C10.6852 7.44474 10.9124 7.96378 11.3483 7.96378H15.75V24.2763H9V17.2763C9 16.1717 8.10457 15.2763 7 15.2763H6.5C5.39543 15.2763 4.5 16.1717 4.5 17.2763V24.2763H2.25C1.00736 24.2763 0 25.2836 0 26.5263Z" fill="white" fill-opacity="0.1"/>
<defs>
<linearGradient id="paint0_linear_2262_25482" x1="42.775" y1="-6.02677" x2="0.138145" y2="31.1859" gradientUnits="userSpaceOnUse">
<stop stop-color="#645AFF"/>
<stop offset="0.60257" stop-color="#E40C5B"/>
<stop offset="1" stop-color="#FF4C3B"/>
</linearGradient>
</defs>
</svg>
