<svg width="33" height="32" viewBox="0 0 33 32" fill="none" xmlns="http://www.w3.org/2000/svg">
<path fill-rule="evenodd" clip-rule="evenodd" d="M2.02026 2.00008C2.02026 0.895466 2.91573 0 4.02034 0H28.3038C29.4084 0 30.3039 0.895466 30.3039 2.00008C30.3039 3.10469 29.4084 4.00016 28.3038 4.00016H4.02034C2.91573 4.00016 2.02026 3.10469 2.02026 2.00008ZM0 7.9991C0 6.89449 0.895465 5.99902 2.00008 5.99902H30.324C31.4286 5.99902 32.3241 6.89449 32.3241 7.9991C32.3241 9.10371 31.4286 9.99918 30.324 9.99918H2.00008C0.895465 9.99918 0 9.10371 0 7.9991ZM4 11.9992C1.79086 11.9992 0 13.7901 0 15.9992V28C0 30.2091 1.79086 32 4 32H28.3241C30.5333 32 32.3241 30.2091 32.3241 28V15.9992C32.3241 13.7901 30.5332 11.9992 28.3241 11.9992H4ZM18.1823 21.9996V11.9992H14.1418V21.9996H18.1823ZM16.4875 27.7209L22.1345 22.8792C22.4869 22.5771 22.2733 21.9997 21.8091 21.9997H10.515C10.0509 21.9997 9.8372 22.5771 10.1896 22.8792L15.8366 27.7209C16.0239 27.8814 16.3002 27.8814 16.4875 27.7209Z" fill="url(#paint0_linear_2262_25493)"/>
<path fill-rule="evenodd" clip-rule="evenodd" d="M2.02026 2.00008C2.02026 0.895466 2.91573 0 4.02034 0H28.3038C29.4084 0 30.3039 0.895466 30.3039 2.00008C30.3039 3.10469 29.4084 4.00016 28.3038 4.00016H4.02034C2.91573 4.00016 2.02026 3.10469 2.02026 2.00008ZM0 7.9991C0 6.89449 0.895465 5.99902 2.00008 5.99902H30.324C31.4286 5.99902 32.3241 6.89449 32.3241 7.9991C32.3241 9.10371 31.4286 9.99918 30.324 9.99918H2.00008C0.895465 9.99918 0 9.10371 0 7.9991ZM4 11.9992C1.79086 11.9992 0 13.7901 0 15.9992V28C0 30.2091 1.79086 32 4 32H28.3241C30.5333 32 32.3241 30.2091 32.3241 28V15.9992C32.3241 13.7901 30.5332 11.9992 28.3241 11.9992H4ZM18.1823 21.9996V11.9992H14.1418V21.9996H18.1823ZM16.4875 27.7209L22.1345 22.8792C22.4869 22.5771 22.2733 21.9997 21.8091 21.9997H10.515C10.0509 21.9997 9.8372 22.5771 10.1896 22.8792L15.8366 27.7209C16.0239 27.8814 16.3002 27.8814 16.4875 27.7209Z" fill="white" fill-opacity="0.1"/>
<defs>
<linearGradient id="paint0_linear_2262_25493" x1="38.4073" y1="37.4286" x2="0.0191741" y2="4.03006" gradientUnits="userSpaceOnUse">
<stop stop-color="#645AFF"/>
<stop offset="0.60257" stop-color="#E40C5B"/>
<stop offset="1" stop-color="#FF4C3B"/>
</linearGradient>
</defs>
</svg>
